<svg width="115" height="159" viewBox="0 0 115 159" fill="none" xmlns="http://www.w3.org/2000/svg">
<path d="M99.9 10.6611C113.9 20.1611 124.5 34.7611 121.7 48.5611C118.9 62.2611 102.5 75.0611 94.2 87.4611C86 99.7611 85.8 111.661 80 124.161C74.2 136.661 62.9 149.661 47.4 155.361C32 160.961 12.5 159.061 4.60001 147.261C-3.29999 135.461 0.500017 113.761 4.70002 98.4611C8.80002 83.2611 13.3 74.4611 16.7 65.7611C20.1 57.0611 22.4 48.4611 28 36.2611C33.6 24.0611 42.6 8.26113 55.7 2.56113C68.7 -3.13887 86 1.16113 99.9 10.6611Z" fill="#F79F77"/>
</svg>
