<svg width="107" height="124" viewBox="0 0 107 124" fill="none" xmlns="http://www.w3.org/2000/svg">
<path d="M107.808 -2.29075C117.608 3.90925 124.908 14.5092 127.808 25.9092C130.608 37.3092 129.008 49.5093 124.208 59.7093C119.508 69.9092 111.608 78.0092 102.608 91.8092C93.6081 105.509 83.5081 124.809 74.0081 123.809C64.6081 122.809 55.9081 101.409 46.7081 87.8092C37.4081 74.1093 27.6081 68.2093 18.3081 57.8092C9.00806 47.4092 0.308052 32.5093 0.0080523 16.3092C-0.291948 0.209249 7.80805 -17.2908 21.4081 -22.2908C35.1081 -27.3908 54.2081 -19.8908 69.9081 -15.2908C85.6081 -10.5908 97.9081 -8.59075 107.808 -2.29075Z" fill="#F6D58A"/>
</svg>
